<svg width="28" height="28" viewBox="0 0 28 28" fill="none" xmlns="http://www.w3.org/2000/svg">
<path d="M9.25822 19.8457L16.9582 12.1457V16.0188H19.25V8.25H11.4812V10.5418H15.3199L7.65428 18.2074L9.25822 19.8457ZM13.75 27.5C11.8633 27.5 10.0834 27.1391 8.41053 26.4172C6.73762 25.6953 5.27851 24.7118 4.03322 23.4668C2.78816 22.2215 1.80469 20.7624 1.08281 19.0895C0.360938 17.4166 0 15.6367 0 13.75C0 11.8479 0.360938 10.0604 1.08281 8.3875C1.80469 6.71458 2.78816 5.25938 4.03322 4.02187C5.27851 2.78437 6.73762 1.80469 8.41053 1.08281C10.0834 0.360938 11.8633 0 13.75 0C15.6521 0 17.4396 0.360938 19.1125 1.08281C20.7854 1.80469 22.2406 2.78437 23.4781 4.02187C24.7156 5.25938 25.6953 6.71458 26.4172 8.3875C27.1391 10.0604 27.5 11.8479 27.5 13.75C27.5 15.6367 27.1391 17.4166 26.4172 19.0895C25.6953 20.7624 24.7156 22.2215 23.4781 23.4668C22.2406 24.7118 20.7854 25.6953 19.1125 26.4172C17.4396 27.1391 15.6521 27.5 13.75 27.5ZM13.75 25.2082C16.943 25.2082 19.6509 24.093 21.8738 21.8625C24.0968 19.632 25.2082 16.9279 25.2082 13.75C25.2082 10.557 24.0968 7.84907 21.8738 5.62616C19.6509 3.40324 16.943 2.29178 13.75 2.29178C10.5721 2.29178 7.86798 3.40324 5.6375 5.62616C3.40702 7.84907 2.29178 10.557 2.29178 13.75C2.29178 16.9279 3.40702 19.632 5.6375 21.8625C7.86798 24.093 10.5721 25.2082 13.75 25.2082Z" fill="#D41317"/>
</svg>
