<svg width="27" height="27" viewBox="0 0 27 27" fill="none" xmlns="http://www.w3.org/2000/svg">
<path d="M5.34842 24.5629L19.323 10.5884V17.6175H23.4823V3.51814H9.38294V7.67743H16.3496L2.43747 21.5896L5.34842 24.5629ZM13.5004 38.4545C10.0763 38.4545 6.84611 37.7994 3.80997 36.4893C0.773834 35.1792 -1.87426 33.3943 -4.13431 31.1347C-6.39394 28.8747 -8.17882 26.2266 -9.48893 23.1904C-10.799 20.1543 -11.4541 16.9241 -11.4541 13.5C-11.4541 10.0479 -10.799 6.80382 -9.48893 3.76768C-8.17882 0.731546 -6.39394 -1.90948 -4.13431 -4.15539C-1.87426 -6.40129 0.773834 -8.17931 3.80997 -9.48942C6.84611 -10.7995 10.0763 -11.4546 13.5004 -11.4546C16.9525 -11.4546 20.1966 -10.7995 23.2327 -9.48942C26.2689 -8.17931 28.9099 -6.40129 31.1558 -4.15539C33.4017 -1.90948 35.1797 0.731546 36.4898 3.76768C37.7999 6.80382 38.455 10.0479 38.455 13.5C38.455 16.9241 37.7999 20.1543 36.4898 23.1904C35.1797 26.2266 33.4017 28.8747 31.1558 31.1347C28.9099 33.3943 26.2689 35.1792 23.2327 36.4893C20.1966 37.7994 16.9525 38.4545 13.5004 38.4545ZM13.5004 34.2952C19.2953 34.2952 24.2099 32.2712 28.2442 28.2231C32.2785 24.1751 34.2957 19.2674 34.2957 13.5C34.2957 7.7051 32.2785 2.7905 28.2442 -1.24381C24.2099 -5.27813 19.2953 -7.29529 13.5004 -7.29529C7.73303 -7.29529 2.8253 -5.27813 -1.22274 -1.24381C-5.27078 2.7905 -7.2948 7.7051 -7.2948 13.5C-7.2948 19.2674 -5.27078 24.1751 -1.22274 28.2231C2.8253 32.2712 7.73303 34.2952 13.5004 34.2952Z" fill="#D41317"/>
</svg>
