<svg width="39" height="41" viewBox="0 0 39 41" fill="none" xmlns="http://www.w3.org/2000/svg">
<path d="M16.8 0C14.2539 0 11.8121 1.01143 10.0118 2.81178C8.21143 4.61212 7.2 7.05392 7.2 9.6C7.2 12.1461 8.21143 14.5879 10.0118 16.3882C11.8121 18.1886 14.2539 19.2 16.8 19.2C19.3461 19.2 21.7879 18.1886 23.5882 16.3882C25.3886 14.5879 26.4 12.1461 26.4 9.6C26.4 7.05392 25.3886 4.61212 23.5882 2.81178C21.7879 1.01143 19.3461 0 16.8 0ZM9.6 9.6C9.6 7.69044 10.3586 5.85909 11.7088 4.50883C13.0591 3.15857 14.8904 2.4 16.8 2.4C18.7096 2.4 20.5409 3.15857 21.8912 4.50883C23.2414 5.85909 24 7.69044 24 9.6C24 11.5096 23.2414 13.3409 21.8912 14.6912C20.5409 16.0414 18.7096 16.8 16.8 16.8C14.8904 16.8 13.0591 16.0414 11.7088 14.6912C10.3586 13.3409 9.6 11.5096 9.6 9.6ZM4.8216 21.6C4.18944 21.5972 3.56294 21.7192 2.97809 21.9592C2.39323 22.1991 1.86153 22.5522 1.41352 22.9982C0.965504 23.4442 0.610006 23.9743 0.367434 24.5581C0.124862 25.1419 -6.40047e-06 25.7678 2.46063e-10 26.4C2.46065e-10 30.4584 1.9992 33.5184 5.124 35.5128C7.7112 37.1616 11.0568 38.0808 14.7 38.3304L15.42 35.9664C11.832 35.7936 8.6952 34.944 6.4152 33.4872C3.8952 31.8792 2.4 29.544 2.4 26.4C2.4 25.0728 3.4752 24 4.8216 24H15.8376C16.2792 23.1392 16.8056 22.3392 17.4168 21.6H4.8216ZM38.4 30C38.4004 31.8798 37.91 33.7272 36.9775 35.3595C36.045 36.9917 34.7026 38.3523 33.0831 39.3067C31.4635 40.2611 29.6229 40.7762 27.7432 40.8011C25.8635 40.826 24.0099 40.3599 22.3656 39.4488L18.0696 40.7544C17.8996 40.805 17.7191 40.8088 17.5472 40.7653C17.3752 40.7218 17.2183 40.6326 17.0928 40.5072C16.9674 40.3817 16.8782 40.2248 16.8347 40.0528C16.7912 39.8809 16.795 39.7004 16.8456 39.5304L18.1512 35.2368C17.353 33.7949 16.8954 32.1894 16.8134 30.5433C16.7314 28.8972 17.0272 27.2542 17.6782 25.7401C18.3292 24.226 19.3181 22.881 20.5692 21.8081C21.8202 20.7352 23.3002 19.9628 24.8958 19.5501C26.4915 19.1375 28.1604 19.0955 29.7747 19.4273C31.3891 19.7592 32.9061 20.4561 34.2095 21.4648C35.513 22.4734 36.5683 23.767 37.2946 25.2464C38.021 26.7258 38.3991 28.3519 38.4 30ZM22.8 26.4C22.4817 26.4 22.1765 26.5264 21.9515 26.7515C21.7264 26.9765 21.6 27.2817 21.6 27.6C21.6 27.9183 21.7264 28.2235 21.9515 28.4485C22.1765 28.6736 22.4817 28.8 22.8 28.8H32.4C32.7183 28.8 33.0235 28.6736 33.2485 28.4485C33.4736 28.2235 33.6 27.9183 33.6 27.6C33.6 27.2817 33.4736 26.9765 33.2485 26.7515C33.0235 26.5264 32.7183 26.4 32.4 26.4H22.8ZM21.6 32.4C21.6 32.7183 21.7264 33.0235 21.9515 33.2485C22.1765 33.4736 22.4817 33.6 22.8 33.6H27.6C27.9183 33.6 28.2235 33.4736 28.4485 33.2485C28.6736 33.0235 28.8 32.7183 28.8 32.4C28.8 32.0817 28.6736 31.7765 28.4485 31.5515C28.2235 31.3264 27.9183 31.2 27.6 31.2H22.8C22.4817 31.2 22.1765 31.3264 21.9515 31.5515C21.7264 31.7765 21.6 32.0817 21.6 32.4Z" fill="#1A2B6D"/>
</svg>
