<svg width="45" height="45" viewBox="0 0 45 45" fill="none" xmlns="http://www.w3.org/2000/svg">
<path d="M32.1956 32.1584L43.4696 43.4285M2.90359 26.4685C3.82124 28.654 5.1615 30.6367 6.84745 32.3028C8.53339 33.969 10.5318 35.2858 12.728 36.1775C14.9242 37.0693 17.2749 37.5185 19.6451 37.4994C22.0154 37.4803 24.3585 36.9932 26.5401 36.0662C28.7216 35.1391 30.6985 33.7903 32.3574 32.0971C34.0162 30.404 35.3243 28.3999 36.2066 26.1999C37.0889 23.9999 37.528 21.6473 37.4986 19.2771C37.4693 16.907 36.9721 14.5659 36.0356 12.3884C34.1548 8.01531 30.6183 4.56528 26.1999 2.79337C21.7815 1.02146 16.8412 1.07197 12.4599 2.93385C8.07871 4.79572 4.61344 8.31733 2.82247 12.728C1.03149 17.1387 1.06066 22.0792 2.90359 26.4685Z" stroke="white" stroke-width="3" stroke-linecap="round" stroke-linejoin="round"/>
<path d="M19.4695 22.4282V31.4282M27.9175 28.4282C27.307 26.6739 26.1655 25.1531 24.6515 24.0769C23.1375 23.0007 21.3261 22.4225 19.4685 22.4225C17.611 22.4225 15.7995 23.0007 14.2855 24.0769C12.7715 25.1531 11.63 26.6739 11.0195 28.4282M13.4695 13.4282C13.4695 15.0195 14.1017 16.5456 15.2269 17.6709C16.3521 18.7961 17.8782 19.4282 19.4695 19.4282C21.0608 19.4282 22.587 18.7961 23.7122 17.6709C24.8374 16.5456 25.4695 15.0195 25.4695 13.4282C25.4695 11.8369 24.8374 10.3108 23.7122 9.18558C22.587 8.06036 21.0608 7.42822 19.4695 7.42822C17.8782 7.42822 16.3521 8.06036 15.2269 9.18558C14.1017 10.3108 13.4695 11.8369 13.4695 13.4282Z" stroke="white" stroke-width="3" stroke-linecap="round" stroke-linejoin="round"/>
</svg>
