<svg width="38" height="38" viewBox="0 0 38 38" fill="none" xmlns="http://www.w3.org/2000/svg">
<path d="M19 3.5625C13.0996 3.5625 8.3125 8.11879 8.3125 13.7305C8.3125 20.1875 15.4375 30.42 18.0537 33.9543C18.1623 34.1035 18.3046 34.2249 18.4691 34.3086C18.6336 34.3923 18.8155 34.436 19 34.436C19.1845 34.436 19.3664 34.3923 19.5309 34.3086C19.6954 34.2249 19.8377 34.1035 19.9463 33.9543C22.5625 30.4215 29.6875 20.1927 29.6875 13.7305C29.6875 8.11879 24.9004 3.5625 19 3.5625Z" stroke="white" stroke-width="3" stroke-linecap="round" stroke-linejoin="round"/>
<path d="M19 17.8125C20.9675 17.8125 22.5625 16.2175 22.5625 14.25C22.5625 12.2825 20.9675 10.6875 19 10.6875C17.0325 10.6875 15.4375 12.2825 15.4375 14.25C15.4375 16.2175 17.0325 17.8125 19 17.8125Z" stroke="white" stroke-width="3" stroke-linecap="round" stroke-linejoin="round"/>
</svg>
