<svg width="43" height="32" viewBox="0 0 43 32" fill="none" xmlns="http://www.w3.org/2000/svg">
<path d="M40 0H2.66667C1.95942 0 1.28115 0.280951 0.781048 0.781048C0.280951 1.28115 0 1.95942 0 2.66667V29.3333C0 30.0406 0.280951 30.7189 0.781048 31.219C1.28115 31.719 1.95942 32 2.66667 32H40C40.7072 32 41.3855 31.719 41.8856 31.219C42.3857 30.7189 42.6667 30.0406 42.6667 29.3333V2.66667C42.6667 1.95942 42.3857 1.28115 41.8856 0.781048C41.3855 0.280951 40.7072 0 40 0ZM37.9467 29.3333H4.88L14.2133 19.68L12.2933 17.8267L2.66667 27.7867V4.69333L19.24 21.1867C19.7396 21.6833 20.4155 21.9621 21.12 21.9621C21.8245 21.9621 22.5004 21.6833 23 21.1867L40 4.28V27.6133L30.1867 17.8L28.3067 19.68L37.9467 29.3333ZM4.41333 2.66667H37.84L21.12 19.2933L4.41333 2.66667Z" fill="white"/>
</svg>
